<svg width="1000" height="518" viewBox="0 0 1000 518" fill="none" xmlns="http://www.w3.org/2000/svg">
<path d="M264.7 354.2C268.7 354.2 272 355.6 274.8 358.4C277.6 361.2 279 364.6 279 368.5V418.1H228.3C224.3 418.1 221 416.7 218.2 413.9C215.4 411.1 214 407.7 214 403.8V380.2H267.1V368.5C267.1 367.8 266.9 367.3 266.4 366.8C265.9 366.3 265.4 366.1 264.7 366.1H214V354.2H264.7ZM267.1 406.2V392.1H225.9V403.8C225.9 404.5 226.1 405 226.6 405.5C227.1 406 227.6 406.2 228.3 406.2H267.1ZM381.8 354.2H394.5L370.5 418.1H360.8L339.3 370.6L319 418.1L318.8 418L318.9 418.1H309.3L284.2 354.2H296.8L314.1 396.6L332.5 354.2H346.1L365.6 396.6L381.8 354.2ZM449 354.2C453 354.2 456.3 355.6 459.1 358.4C461.9 361.2 463.3 364.6 463.3 368.5V392.1H410.2V403.8C410.2 404.5 410.4 405 410.9 405.5C411.4 406 411.9 406.2 412.6 406.2H463.3V418.1H412.6C408.6 418.1 405.3 416.7 402.5 413.9C399.7 411.1 398.3 407.7 398.3 403.8V368.5C398.3 364.5 399.7 361.2 402.5 358.4C405.3 355.6 408.7 354.2 412.6 354.2H449ZM410.2 380.2H451.4V368.5C451.4 367.8 451.2 367.3 450.7 366.8C450.2 366.3 449.7 366.1 449 366.1H412.6C411.9 366.1 411.4 366.3 410.9 366.8C410.4 367.3 410.2 367.8 410.2 368.5V380.2ZM539.2 368.6V371H527.3V368.6C527.3 367.9 527.1 367.4 526.6 366.9C526.1 366.4 525.6 366.2 524.9 366.2H488.5C487.8 366.2 487.3 366.4 486.8 366.9C486.3 367.4 486.1 367.9 486.1 368.6V377.9C486.1 378.6 486.3 379.1 486.8 379.6C487.3 380.1 487.8 380.3 488.5 380.3H524.9C528.9 380.3 532.2 381.7 535 384.5C537.8 387.3 539.2 390.7 539.2 394.6V403.9C539.2 407.9 537.8 411.2 535 414C532.2 416.8 528.8 418.2 524.9 418.2H488.5C484.5 418.2 481.2 416.8 478.4 414C475.6 411.2 474.2 407.8 474.2 403.9V401.5H486.1V403.9C486.1 404.6 486.3 405.1 486.8 405.6C487.3 406.1 487.8 406.3 488.5 406.3H524.9C525.6 406.3 526.1 406.1 526.6 405.6C527.1 405.1 527.3 404.6 527.3 403.9V394.6C527.3 393.9 527.1 393.4 526.6 392.9C526.1 392.4 525.6 392.2 524.9 392.2H488.5C484.5 392.2 481.2 390.8 478.4 388C475.6 385.2 474.2 381.8 474.2 377.9V368.6C474.2 364.6 475.6 361.3 478.4 358.5C481.2 355.7 484.6 354.3 488.5 354.3H524.9C528.9 354.3 532.2 355.7 535 358.5C537.8 361.2 539.2 364.6 539.2 368.6ZM564.4 354.2H600.8C604.8 354.2 608.1 355.6 610.9 358.4C613.7 361.2 615.1 364.6 615.1 368.5V403.8C615.1 407.8 613.7 411.1 610.9 413.9C608.1 416.7 604.7 418.1 600.8 418.1H564.4C560.4 418.1 557.1 416.7 554.3 413.9C551.5 411.1 550.1 407.7 550.1 403.8V368.5C550.1 364.5 551.5 361.2 554.3 358.4C557.1 355.6 560.5 354.2 564.4 354.2ZM600.8 366.1H564.4C563.7 366.1 563.2 366.3 562.7 366.8C562.2 367.3 562 367.8 562 368.5V403.8C562 404.5 562.2 405 562.7 405.5C563.2 406 563.7 406.2 564.4 406.2H600.8C601.5 406.2 602 406 602.5 405.5C603 405 603.2 404.5 603.2 403.8V368.5C603.2 367.8 603 367.3 602.5 366.8C602 366.4 601.5 366.1 600.8 366.1ZM708.3 354.2C712.3 354.2 715.6 355.6 718.4 358.4C721.2 361.2 722.6 364.6 722.6 368.5V418.1H710.8V368.5C710.8 367.8 710.6 367.3 710.1 366.8C709.6 366.3 709 366.1 708.3 366.1H683.1C682.4 366.1 681.9 366.3 681.4 366.8C680.9 367.3 680.7 367.8 680.7 368.5V418.1H668.8V368.5C668.8 367.8 668.6 367.3 668.1 366.8C667.6 366.3 667.1 366.1 666.4 366.1H641.1C640.4 366.1 639.9 366.3 639.4 366.8C638.9 367.3 638.7 367.8 638.7 368.5V418.1H626.8V354.2H708.3ZM784.8 354.2C788.8 354.2 792.1 355.6 794.9 358.4C797.7 361.2 799.1 364.6 799.1 368.5V392.1H746V403.8C746 404.5 746.2 405 746.7 405.5C747.2 406 747.7 406.2 748.4 406.2H799.1V418.1H748.4C744.4 418.1 741.1 416.7 738.3 413.9C735.5 411.1 734.1 407.7 734.1 403.8V368.5C734.1 364.5 735.5 361.2 738.3 358.4C741.1 355.6 744.5 354.2 748.4 354.2H784.8ZM746 380.2H787.2V368.5C787.2 367.8 787 367.3 786.5 366.8C786 366.3 785.5 366.1 784.8 366.1H748.4C747.7 366.1 747.2 366.3 746.7 366.8C746.2 367.3 746 367.8 746 368.5V380.2Z" fill="#494368"/>
<path d="M799 152.1L649 14.5004L627.9 37.5004L752.9 152.1H260.2L385.2 37.4004L364.1 14.4004L214.1 152.1H214V242.8C214 283.8 253.5 317.2 302 317.2H394.5C443 317.2 482.5 283.8 482.5 242.8V183.2H530.5V242.8C530.5 283.8 570 317.2 618.5 317.2H711C759.5 317.2 799 283.8 799 242.8V152.1Z" fill="#58841F"/>
<path d="M799 152.1L649 14.5004L627.9 37.5004L752.9 152.1H260.2L385.2 37.4004L364.1 14.4004L214.1 152.1H214V242.8C214 283.8 253.5 317.2 302 317.2H394.5C443 317.2 482.5 283.8 482.5 242.8V183.2H530.5V242.8C530.5 283.8 570 317.2 618.5 317.2H711C759.5 317.2 799 283.8 799 242.8V152.1Z" fill="url(#paint0_linear)"/>
<path d="M234.385 487.82C233.365 487.82 232.515 486.97 232.515 485.95V458.75C232.515 457.73 233.365 456.88 234.385 456.88H273.315V447.7H234.385C228.265 447.7 223.335 452.63 223.335 458.75V485.95C223.335 492.07 228.265 497 234.385 497H273.485V487.82H234.385ZM293.572 447.7C287.452 447.7 282.522 452.63 282.522 458.75V485.95V497H291.702V458.75C291.702 457.73 292.552 456.88 293.572 456.88H321.112V447.7H293.572ZM336.983 447.7C330.863 447.7 325.933 452.63 325.933 458.75V485.95C325.933 492.07 330.863 497 336.983 497H365.033C371.153 497 376.083 492.07 376.083 485.95V458.75C376.083 452.63 371.153 447.7 365.033 447.7H336.983ZM365.033 456.88C366.053 456.88 366.903 457.73 366.903 458.75V485.95C366.903 486.97 366.053 487.82 365.033 487.82H336.983C335.963 487.82 335.113 486.97 335.113 485.95V458.75C335.113 457.73 335.963 456.88 336.983 456.88H365.033ZM424.14 447.7H385.04V516.55H394.22V497H424.14C430.26 497 435.19 492.07 435.19 485.95V458.75C435.19 452.63 430.26 447.7 424.14 447.7ZM426.01 485.95C426.01 486.97 425.16 487.82 424.14 487.82H396.09C395.07 487.82 394.22 486.97 394.22 485.95V458.75C394.22 457.73 395.07 456.88 396.09 456.88H424.14C425.16 456.88 426.01 457.73 426.01 458.75V485.95ZM529.124 447.7H466.139V497H475.319V458.75C475.319 457.73 476.169 456.88 477.189 456.88H496.739C497.759 456.88 498.609 457.73 498.609 458.75V497H507.789V458.75C507.789 457.73 508.639 456.88 509.659 456.88H529.124C530.229 456.88 531.079 457.73 531.079 458.75V497H540.174V458.75C540.174 452.63 535.244 447.7 529.124 447.7ZM560.025 447.7C553.905 447.7 548.975 452.63 548.975 458.75V485.95C548.975 492.07 553.905 497 560.025 497H588.075C594.195 497 599.125 492.07 599.125 485.95V458.75C599.125 452.63 594.195 447.7 588.075 447.7H560.025ZM588.075 456.88C589.095 456.88 589.945 457.73 589.945 458.75V485.95C589.945 486.97 589.095 487.82 588.075 487.82H560.025C559.005 487.82 558.155 486.97 558.155 485.95V458.75C558.155 457.73 559.005 456.88 560.025 456.88H588.075ZM646.417 431.55V447.7H616.497C610.377 447.7 605.447 452.63 605.447 458.75V485.95C605.447 492.07 610.377 497 616.497 497H655.597V431.55H646.417ZM616.497 487.82C615.477 487.82 614.627 486.97 614.627 485.95V458.75C614.627 457.73 615.477 456.88 616.497 456.88H644.547C645.567 456.88 646.417 457.73 646.417 458.75V485.95C646.417 486.97 645.567 487.82 644.547 487.82H616.497ZM702.376 447.7H674.326C668.206 447.7 663.276 452.63 663.276 458.75V485.95C663.276 492.07 668.206 497 674.326 497H713.426V487.82H674.326C673.306 487.82 672.456 486.97 672.456 485.95V476.94H713.426V458.75C713.426 452.63 708.496 447.7 702.376 447.7ZM672.456 467.76V458.75C672.456 457.73 673.306 456.88 674.326 456.88H702.376C703.396 456.88 704.246 457.73 704.246 458.75V467.76H672.456ZM721.799 458.75V485.95C721.799 492.07 726.729 497 732.849 497H742.029V487.82H732.849C731.829 487.82 730.979 486.97 730.979 485.95V431.55H721.799V458.75ZM797.258 458.75C797.258 452.63 792.328 447.7 786.208 447.7H758.158C752.038 447.7 747.108 452.63 747.108 458.75V465.89C747.108 472.01 752.038 476.94 758.158 476.94H786.208C787.228 476.94 788.078 477.79 788.078 478.81V485.95C788.078 486.97 787.228 487.82 786.208 487.82H758.158C757.138 487.82 756.288 486.97 756.288 485.95V484.08H747.108V485.95C747.108 492.07 752.038 497 758.158 497H786.208C792.328 497 797.258 492.07 797.258 485.95V478.81C797.258 472.69 792.328 467.76 786.208 467.76H758.158C757.138 467.76 756.288 466.91 756.288 465.89V458.75C756.288 457.73 757.138 456.88 758.158 456.88H786.208C787.228 456.88 788.078 457.73 788.078 458.75V460.62H797.258V458.75Z" fill="#494368"/>
<defs>
<linearGradient id="paint0_linear" x1="506.5" y1="14.4004" x2="506.5" y2="317.2" gradientUnits="userSpaceOnUse">
<stop stop-color="#00CF91"/>
<stop offset="1" stop-color="white" stop-opacity="0"/>
</linearGradient>
</defs>
</svg>
